<svg width="89" height="22" viewBox="0 0 89 22" fill="none" xmlns="http://www.w3.org/2000/svg">
<path d="M0.119995 21V20.424H1.624C1.92266 20.424 2.072 20.296 2.072 20.04V1.8C2.072 1.544 1.92266 1.416 1.624 1.416H0.119995V0.839996H7.608C9.208 0.839996 10.5733 1.27733 11.704 2.152C12.856 3.02666 13.432 4.15733 13.432 5.544C13.432 6.61066 13.144 7.54933 12.568 8.36C12.0133 9.14933 11.2667 9.74666 10.328 10.152C11.672 10.4507 12.76 11.0587 13.592 11.976C14.4453 12.8933 14.872 14.12 14.872 15.656C14.872 17.1707 14.2427 18.44 12.984 19.464C11.7253 20.488 10.2 21 8.408 21H0.119995ZM8.248 10.728H4.696V20.104H8.248C9.528 20.104 10.52 19.6347 11.224 18.696C11.9493 17.7573 12.312 16.6587 12.312 15.4C12.312 14.1413 11.9493 13.0533 11.224 12.136C10.52 11.1973 9.528 10.728 8.248 10.728ZM6.936 1.736H4.696V9.928H7.128C8.38666 9.928 9.32533 9.50133 9.944 8.648C10.5627 7.79466 10.872 6.80266 10.872 5.672C10.872 4.52 10.552 3.58133 9.912 2.856C9.272 2.10933 8.28 1.736 6.936 1.736Z" fill="black"/>
<path d="M30.7997 20.328C31.1197 20.328 31.3757 20.2 31.5677 19.944C31.7811 19.6667 31.8877 19.3467 31.8877 18.984C31.8877 18.6 31.8557 18.248 31.7917 17.928L32.3997 17.832C32.4851 18.152 32.5277 18.504 32.5277 18.888C32.5277 19.656 32.2931 20.264 31.8237 20.712C31.3757 21.16 30.7891 21.384 30.0637 21.384C28.2504 21.384 27.3437 20.2853 27.3437 18.088C27.3437 15.8907 27.0664 14.28 26.5117 13.256C25.9571 12.2107 24.8264 11.688 23.1197 11.688H21.0397V19.976C21.0397 20.2747 21.1891 20.424 21.4877 20.424H23.6317V21H16.4637V20.424H17.9677C18.2664 20.424 18.4157 20.2747 18.4157 19.976V1.8C18.4157 1.544 18.2664 1.416 17.9677 1.416H16.4637V0.839996H24.4317C26.2237 0.839996 27.7491 1.33066 29.0077 2.312C30.2664 3.29333 30.8957 4.60533 30.8957 6.248C30.8957 7.57066 30.4797 8.69066 29.6477 9.608C28.8371 10.504 27.7597 11.1227 26.4157 11.464C27.9304 11.976 28.8904 12.8933 29.2957 14.216C29.6157 15.304 29.7757 16.5947 29.7757 18.088C29.7757 19.5813 30.1171 20.328 30.7997 20.328ZM24.2717 1.736H21.0397V10.76H24.2717C25.5517 10.76 26.5437 10.312 27.2477 9.416C27.9731 8.52 28.3357 7.464 28.3357 6.248C28.3357 5.032 27.9731 3.976 27.2477 3.08C26.5437 2.184 25.5517 1.736 24.2717 1.736Z" fill="black"/>
<path d="M50.7445 21H44.1845V20.424H46.2645L42.5 11L36 17L34.7445 20.424H36.8245V21H31.9925V20.424H33.1765C33.4752 20.424 33.6778 20.2747 33.7845 19.976L40.8245 0.839996H41.9125L48.9525 19.976C49.0592 20.2747 49.2618 20.424 49.5605 20.424H50.7445V21ZM40.5365 4.616L37 14.216L42 9.5L40.5365 4.616Z" fill="black"/>
<path d="M66.6295 21L54.5975 3.144V19.976C54.5975 20.2747 54.7468 20.424 55.0455 20.424H56.5495V21H51.5575V20.424H53.0615C53.3602 20.424 53.5095 20.2747 53.5095 19.976V1.8C53.5095 1.544 53.3602 1.416 53.0615 1.416H51.5575V0.839996H56.2615L66.5655 16.072V1.864C66.5655 1.56533 66.4162 1.416 66.1175 1.416H64.6135V0.839996H69.6055V1.416H68.1015C67.8028 1.416 67.6535 1.544 67.6535 1.8V21H66.6295Z" fill="black"/>
<path d="M71.6825 1.416V0.839996H79.8105C82.5198 0.839996 84.7278 1.736 86.4345 3.528C88.1412 5.32 88.9945 7.784 88.9945 10.92C88.9945 14.056 88.1412 16.52 86.4345 18.312C84.7278 20.104 82.5198 21 79.8105 21H71.6825V20.424H73.1865C73.4852 20.424 73.6345 20.296 73.6345 20.04V1.8C73.6345 1.544 73.4852 1.416 73.1865 1.416H71.6825ZM79.8105 1.736H76.2585V20.104H79.8105C81.6452 20.104 83.1812 19.2827 84.4185 17.64C85.6558 15.9973 86.2745 13.7573 86.2745 10.92C86.2745 8.08266 85.6558 5.84266 84.4185 4.2C83.1812 2.55733 81.6452 1.736 79.8105 1.736Z" fill="black"/>
</svg>
