<svg width="100" height="100" viewBox="0 0 100 100" fill="none" xmlns="http://www.w3.org/2000/svg">
<circle cx="50" cy="50" r="50" fill="#291D00"/>
<circle cx="50" cy="50" r="40" fill="#FFFBF1"/>
<path d="M32 77V75.4857H35.9761C36.7657 75.4857 37.1605 75.1492 37.1605 74.4762V26.5238C37.1605 25.8508 36.7657 25.5143 35.9761 25.5143H32V24H51.7961C56.026 24 59.6356 25.1497 62.6247 27.4492C65.6703 29.7487 67.1931 32.7212 67.1931 36.3667C67.1931 39.1709 66.4317 41.6386 64.9089 43.7698C63.4425 45.845 61.4685 47.4153 58.987 48.481C62.5401 49.2661 65.4165 50.8646 67.6161 53.2762C69.872 55.6878 71 58.9127 71 62.9508C71 66.9328 69.3362 70.2698 66.0087 72.9619C62.6811 75.654 58.6486 77 53.9111 77H32ZM53.4881 49.9952H44.0976V74.6444H53.4881C56.872 74.6444 59.4946 73.4106 61.3557 70.9429C63.2733 68.4751 64.2321 65.5868 64.2321 62.2778C64.2321 58.9688 63.2733 56.1085 61.3557 53.6968C59.4946 51.2291 56.872 49.9952 53.4881 49.9952ZM50.0195 26.3556H44.0976V47.8921H50.5271C53.8547 47.8921 56.3362 46.7704 57.9718 44.527C59.6074 42.2836 60.4252 39.6757 60.4252 36.7032C60.4252 33.6746 59.5792 31.2069 57.8872 29.3C56.1952 27.337 53.5727 26.3556 50.0195 26.3556Z" fill="black"/>
</svg>
